<?xml version="1.0" encoding="utf-8"?>
<!-- Generator: Adobe Illustrator 16.0.4, SVG Export Plug-In . SVG Version: 6.00 Build 0)  -->
<!DOCTYPE svg PUBLIC "-//W3C//DTD SVG 1.1//EN" "http://www.w3.org/Graphics/SVG/1.1/DTD/svg11.dtd">
<svg version="1.1" id="Layer_1" xmlns="http://www.w3.org/2000/svg" xmlns:xlink="http://www.w3.org/1999/xlink" x="0px" y="0px"
	 width="612px" height="194.894px" viewBox="0 0 612 194.894" style="enable-background:new 0 0 612 194.894;" xml:space="preserve"
	>
<style type="text/css">
<![CDATA[
	.st0{fill-rule:evenodd;clip-rule:evenodd;}
]]>
</style>
<g>
	<g>
		<g>
			<path d="M32.699,70.617v-7.924c0,0-4.715,0-6.417,0c-3.022,0-6.23,3.216-6.23,6.23v77.163c0,3.029,3.208,6.245,6.23,6.245
				c3.208,0,6.417-3.216,6.417-6.245v-3.962H43.66v3.962c0,9.446-7.932,17.198-17.377,17.198s-17.177-7.752-17.177-17.198V68.923
				c0-9.446,7.731-17.184,17.177-17.184c1.701,0,17.377,0,17.377,0v18.877H32.699z"/>
			<path d="M68.223,50.031c9.446,0,17.385,7.939,17.385,17.385v78.67c0,9.446-7.939,17.198-17.385,17.198
				c-9.453,0-17.198-7.752-17.198-17.198v-78.67C51.025,57.97,58.77,50.031,68.223,50.031z M61.985,146.086
				c0,3.029,3.209,6.245,6.238,6.245c3.201,0,6.424-3.216,6.424-6.245v-78.67c0-3.216-3.223-6.23-6.424-6.23
				c-3.029,0-6.238,3.015-6.238,6.23V146.086z"/>
			<path d="M106.194,62.693l10.2,25.683l10.2-25.683V51.74h11.141v110.023h-11.141V91.778l-10.2,25.453l-10.2-25.453v69.985H95.227
				V51.74h10.967V62.693z"/>
			<path d="M158.327,97.262h14.927v11.154h-14.927v53.347h-10.96V51.74h26.648v10.953h-15.688V97.262z"/>
			<path d="M199.31,50.031c9.446,0,17.385,7.939,17.385,17.385v78.67c0,9.446-7.939,17.198-17.385,17.198
				s-17.184-7.752-17.184-17.198v-78.67C182.125,57.97,189.863,50.031,199.31,50.031z M193.079,146.086
				c0,3.029,3.216,6.245,6.23,6.245c3.215,0,6.431-3.216,6.431-6.245v-78.67c0-3.216-3.216-6.23-6.431-6.23
				c-3.015,0-6.23,3.015-6.23,6.23V146.086z"/>
			<path d="M245.98,116.097c0,0-5.11,0-6.432,0v45.666h-10.953V65.909l-7.939-7.938l7.939-7.939l5.283,5.283
				c3.029-3.388,7.379-5.283,12.102-5.283c9.446,0,17.184,7.939,17.184,17.385v31.54c0,4.35-1.694,8.513-4.723,11.7
				c3.215,3.188,4.723,7.308,4.723,11.83v39.278h-10.968v-39.278C252.196,118.723,249.01,116.097,245.98,116.097z M239.549,105.201
				c0,0,3.216,0,6.432,0c3.029,0,6.216-3.216,6.216-6.245v-31.54c0-3.216-3.187-6.23-6.216-6.23c-3.216,0-6.432,3.015-6.432,6.23
				V105.201z"/>
			<path d="M290.197,62.693v99.07h-10.968v-99.07h-10.954V51.74h33.062v10.953H290.197z"/>
			<path d="M348.927,70.617v-7.924c0,0-4.725,0-6.418,0c-3.029,0-6.23,3.216-6.23,6.23v77.163c0,3.029,3.201,6.245,6.23,6.245
				c3.216,0,6.418-3.216,6.418-6.245v-3.962h10.952v3.962c0,9.446-7.924,17.198-17.37,17.198c-9.46,0-17.198-7.752-17.198-17.198
				V68.923c0-9.446,7.738-17.184,17.198-17.184c1.693,0,17.37,0,17.37,0v18.877H348.927z"/>
			<path d="M384.456,50.031c9.432,0,17.37,7.939,17.37,17.385v78.67c0,9.446-7.938,17.198-17.37,17.198
				c-9.474,0-17.197-7.752-17.197-17.198v-78.67C367.259,57.97,374.982,50.031,384.456,50.031z M378.212,146.086
				c0,3.029,3.215,6.245,6.244,6.245c3.202,0,6.417-3.216,6.417-6.245v-78.67c0-3.216-3.215-6.23-6.417-6.23
				c-3.029,0-6.244,3.015-6.244,6.23V146.086z"/>
			<path d="M422.413,51.74v99.069h18.131v10.954h-29.085V51.74H422.413z"/>
			<path d="M461.145,50.031c9.432,0,17.385,7.939,17.385,17.385v78.67c0,9.446-7.953,17.198-17.385,17.198
				c-9.445,0-17.197-7.752-17.197-17.198v-78.67C443.947,57.97,451.699,50.031,461.145,50.031z M454.899,146.086
				c0,3.029,3.23,6.245,6.245,6.245c3.188,0,6.418-3.216,6.418-6.245v-78.67c0-3.216-3.229-6.23-6.418-6.23
				c-3.015,0-6.245,3.015-6.245,6.23V146.086z"/>
			<path d="M507.802,116.097c0,0-5.111,0-6.432,0v45.666h-10.953V65.909l-7.939-7.938l7.939-7.939l5.297,5.283
				c3.015-3.388,7.351-5.283,12.088-5.283c9.432,0,17.184,7.939,17.184,17.385v31.54c0,4.35-1.694,8.513-4.737,11.7
				c3.229,3.188,4.737,7.308,4.737,11.83v39.278h-10.953v-39.278C514.032,118.723,510.816,116.097,507.802,116.097z M501.37,105.201
				c0,0,3.215,0,6.432,0c3.015,0,6.23-3.216,6.23-6.245v-31.54c0-3.216-3.216-6.23-6.23-6.23c-3.217,0-6.432,3.015-6.432,6.23
				V105.201z"/>
			<path d="M544.25,134.185v11.901c0,3.029,3.029,6.245,6.231,6.245c3.216,0,6.245-3.216,6.245-6.245V126.26L533.11,87.055V67.416
				c0-9.446,7.925-17.385,17.371-17.385c9.445,0,17.37,7.939,17.37,17.385v11.7h-11.125v-11.7c0-3.216-3.029-6.23-6.245-6.23
				c-3.202,0-6.231,3.015-6.231,6.23v16.438l23.602,39.378v22.854c0,9.446-7.925,17.198-17.37,17.198
				c-9.446,0-17.371-7.752-17.371-17.198v-11.901H544.25z"/>
		</g>
	</g>
	<g>
		<path class="st0" d="M588.295,60.927v-3.359h3.488c1.406,0,3.157,0.258,3.157,1.593c0,2.096-2.812,1.766-4.436,1.766H588.295z
			 M592.673,62.757c2.311-0.065,4.106-0.983,4.106-3.567c0-2.814-2.269-3.438-4.638-3.438l-5.67-0.007v13.035h1.823v-6.022h2.21
			l3.905,6.022h2.196L592.673,62.757z M590.937,72.412c-5.47,0-10.121-4.465-10.121-10.078c-0.015-5.628,4.651-10.064,10.121-10.064
			c5.469,0,10.12,4.436,10.12,10.064C601.057,67.947,596.405,72.412,590.937,72.412 M590.937,74.263
			c6.675,0,11.958-5.283,11.958-11.929c-0.014-6.633-5.283-11.901-11.958-11.901c-6.69-0.007-11.973,5.269-11.973,11.901
			C578.964,68.98,584.246,74.263,590.937,74.263"/>
	</g>
</g>
</svg>
